<svg xmlns:xlink="http://www.w3.org/1999/xlink" xmlns="http://www.w3.org/2000/svg" fill="none" viewBox="0 0 52 20" width="73"  height="28" ><g clip-path="url(#new_msn_svg__a)" fill="none"><mask id="new_msn_svg__b" width="52" height="20" x="0" y="0" maskUnits="userSpaceOnUse" style="mask-type: luminance;" fill="none"><path fill="#FFFFFF" d="M52 0H0v20h52z"></path></mask><g mask="url(#new_msn_svg__b)" fill="none"><path fill="#638FB1" d="M51.142 18.203h-1.94v-4.635q0-1.072-.414-1.62-.407-.548-1.227-.548-.845 0-1.388.62-.544.61-.544 1.548v4.635h-1.95v-8.128h1.95v1.238h.032a3 3 0 0 1 1.137-1.064q.69-.365 1.543-.365 1.38 0 2.087.857.714.85.714 2.477zM35.969 17.306l.966-1.222q.471.436 1.007.659.537.222 1.129.222.674 0 1.031-.254.365-.255.365-.746a.8.8 0 0 0-.316-.651q-.317-.262-1.015-.413-1.584-.34-2.233-.953a2.04 2.04 0 0 1-.642-1.532q0-1.142.885-1.833.893-.699 2.282-.699.771 0 1.446.223a3.7 3.7 0 0 1 1.242.69l-.91 1.183a3.8 3.8 0 0 0-.91-.508 2.6 2.6 0 0 0-.933-.167q-.633 0-.958.246a.78.78 0 0 0-.317.66q0 .404.333.626.333.214 1.226.413 1.332.285 1.99.913.666.627.666 1.62 0 1.182-.893 1.897-.885.714-2.363.714-.902 0-1.69-.27a4.1 4.1 0 0 1-1.388-.818M34.81 18.204H32.86v-4.66q0-1.112-.381-1.628-.375-.516-1.21-.516-.748 0-1.243.643t-.495 1.572v4.588h-1.949V13.45q0-1.024-.398-1.533-.398-.516-1.202-.516-.771 0-1.25.612-.48.61-.48 1.619v4.572h-1.948v-8.128h1.949v1.207h.032q.422-.66 1.104-1.025a3.1 3.1 0 0 1 1.51-.373q.87 0 1.487.413.618.405.893 1.12.48-.771 1.177-1.152.707-.38 1.624-.38 1.332 0 2.03.825.699.818.699 2.46z"></path><path fill="url(&quot;#new_msn_svg__c&quot;)" d="M9.437 15.789s-1.924 4.004-4.884 3.857C1.595 19.5.86 14.406 7.375 12.043c0 0 2.69 1.02 2.062 3.746"></path><path fill="url(&quot;#new_msn_svg__d&quot;)" d="M10.999 15.848s-.853 3.833 1.547 3.799c1.81-.026 2.897-2.54 1.312-6.298 0 0-1.347-.626-2.86 2.499"></path><path fill="#638FB1" d="M11 15.847s.809-9.475 5.045-10.323c2.622-.525 3.796 1.038 3.796 3.036 0 2.727-2.945 4.222-4.843 4.773-2.133.619-3.284 1.596-3.998 2.514M9.433 15.789s.469-1.6-3.961-3.82C1.04 9.75.522 7.056.452 5.502S.86 2.612 1.664 1.859C2.803.792 3.838.602 5.35.73c2.01.168 4.115 2.18 5.166 5.327 1.527 4.574-1.083 9.733-1.083 9.733"></path></g></g><defs><linearGradient id="new_msn_svg__c" x1="5.337" x2="3.255" y1="12.658" y2="17.862" gradientUnits="userSpaceOnUse"><stop stop-color="#4B6D87"></stop><stop offset="1" stop-color="#638FB1"></stop></linearGradient><linearGradient id="new_msn_svg__d" x1="14.011" x2="12.334" y1="17.515" y2="13.93" gradientUnits="userSpaceOnUse"><stop stop-color="#638FB1"></stop><stop offset="1" stop-color="#4B6D87"></stop></linearGradient><clipPath id="new_msn_svg__a"><path fill="#fff" d="M0 0h52v20H0z"></path></clipPath><linearGradient id="new_msn_svg__c" x1="5.337" x2="3.255" y1="12.658" y2="17.862" gradientUnits="userSpaceOnUse"><stop stop-color="#4B6D87"></stop><stop offset="1" stop-color="#638FB1"></stop></linearGradient><linearGradient id="new_msn_svg__d" x1="14.011" x2="12.334" y1="17.515" y2="13.93" gradientUnits="userSpaceOnUse"><stop stop-color="#638FB1"></stop><stop offset="1" stop-color="#4B6D87"></stop></linearGradient></defs></svg>