<svg xmlns:xlink="http://www.w3.org/1999/xlink" xmlns="http://www.w3.org/2000/svg" fill="none" viewBox="0 0 56 20" width="78"  height="28" ><g fill="#638FB1" clip-path="url(#usa-today_svg__a)"><path d="M10.05 19.913c5.499 0 9.956-4.458 9.956-9.956C20.006 4.458 15.55 0 10.05 0S.094 4.458.094 9.957c0 5.498 4.457 9.956 9.956 9.956M25.691 7.648c.314.018.62-.102.84-.324.204-.258.306-.59.268-.923V2.439h1.802V6.4a2.62 2.62 0 0 1-.776 2.022 3.04 3.04 0 0 1-2.134.712 3.04 3.04 0 0 1-2.133-.712 2.62 2.62 0 0 1-.822-2.022V2.439h1.8V6.4c-.018.332.084.656.296.914a1.1 1.1 0 0 0 .86.333m6.493 1.496a4.3 4.3 0 0 1-1.524-.277 3.9 3.9 0 0 1-1.284-.785l.868-1.1c.26.232.545.416.869.546a2.8 2.8 0 0 0 1.062.203c.212.009.425-.037.61-.139a.45.45 0 0 0 .221-.406.46.46 0 0 0-.259-.416 3.7 3.7 0 0 0-.923-.37l-.407-.11a2.8 2.8 0 0 1-1.348-.711 1.66 1.66 0 0 1-.462-1.22c0-.378.12-.757.342-1.061.23-.314.545-.564.914-.712a3.4 3.4 0 0 1 1.34-.258c.489 0 .97.092 1.422.277.443.175.859.415 1.219.73l-.896 1.126a3.3 3.3 0 0 0-.822-.517 2.2 2.2 0 0 0-.933-.222 1.14 1.14 0 0 0-.6.13.43.43 0 0 0-.231.406c.01.157.083.305.222.397.23.148.498.259.766.314l.49.139c.563.12 1.09.397 1.496.794.286.323.443.739.443 1.173.01.388-.11.776-.323 1.099-.23.314-.554.563-.914.711a3.2 3.2 0 0 1-1.358.259m8.054-.13-.416-1.19h-2.457L36.95 9.05h-1.774l2.411-6.575h2.087l2.374 6.539zm-2.466-2.558h1.56l-.738-2.3zm-13.087 10.99v-5.125h-1.958v-1.422h5.689v1.422h-1.93v5.126zm7.518.12c-.61.01-1.22-.138-1.755-.433a3.2 3.2 0 0 1-1.201-1.21 3.37 3.37 0 0 1-.443-1.764 3.7 3.7 0 0 1 .24-1.367c.157-.406.406-.776.711-1.08a3.3 3.3 0 0 1 1.08-.712 3.85 3.85 0 0 1 2.725 0 3.4 3.4 0 0 1 1.08.711c.306.305.555.675.712 1.08.185.435.286.897.295 1.368a3.46 3.46 0 0 1-.443 1.764 3.17 3.17 0 0 1-1.219 1.2 3.45 3.45 0 0 1-1.782.444m0-1.477c.295.01.581-.074.822-.24.24-.166.434-.406.554-.674.138-.314.212-.656.203-1.007a2.4 2.4 0 0 0-.203-1.007 1.7 1.7 0 0 0-.554-.71 1.5 1.5 0 0 0-1.654 0c-.25.184-.434.424-.554.71a2.34 2.34 0 0 0-.203 1.007c-.01.342.065.684.203 1.007.12.268.314.508.554.674.24.157.536.24.832.24m4.442 1.358V10.87h2.595c.6-.01 1.2.13 1.727.415.49.268.896.675 1.173 1.155a3.65 3.65 0 0 1 0 3.408 3 3 0 0 1-1.173 1.154 3.4 3.4 0 0 1-1.727.416zm1.773-1.422h.822c.434.018.85-.176 1.118-.508.286-.388.434-.869.415-1.349.019-.48-.129-.96-.415-1.348a1.34 1.34 0 0 0-1.118-.508h-.822zm9.448 1.422-.415-1.229h-2.466l-.416 1.229h-1.773l2.41-6.576h2.088l2.41 6.576zm-2.42-2.568h1.57l-.775-2.3zm7.731.194v2.364h-1.829v-2.364l-2.327-4.211h2.032l1.219 2.641 1.21-2.604h2.032z" fill="#638FB1"></path></g><defs><clipPath id="usa-today_svg__a"><path fill="#fff" d="M0 0h55.652v20H0z"></path></clipPath></defs></svg>