<svg viewBox="0 0 31 31" xmlns:xlink="http://www.w3.org/1999/xlink" xmlns="http://www.w3.org/2000/svg" width="31" height="31" fill="currentColor" class="shrink-0 min-[361px]:hidden"><path fill="#FFFFFF" fill-rule="evenodd" d="m27.814 16.724-.222.25.595.756.015.015c.382.392.66.881.807 1.42.146.539.155 1.108.025 1.652a3.26 3.26 0 0 1-.763 1.445 3.1 3.1 0 0 1-1.335.86l-3.404.88v1.13c0 .665-.255 1.3-.706 1.767a2.35 2.35 0 0 1-1.69.726h-.005c-.454.005-.9-.126-1.284-.38a2.4 2.4 0 0 1-.882-1.05c-.776-1.795-2.034-2.538-3.47-3.386a51 51 0 0 1-.653-.39l-.152-.092-2.172.646h-.001c-.431.125-.876.185-1.323.178h-.01a4.4 4.4 0 0 1-2.338-.656l-.003-.002-.004-.002a4.53 4.53 0 0 1-1.88-2.193l-.1-.246-.266-.003a4.2 4.2 0 0 1-1.99-.532 4.36 4.36 0 0 1-1.528-1.434l-.003-.003-.315-.475a5.7 5.7 0 0 1-.835-2.16 5.8 5.8 0 0 1 .09-2.329c.189-.76.53-1.471 1.001-2.084a5.4 5.4 0 0 1 1.732-1.476l.131-.07.054-.14A8.9 8.9 0 0 1 7.427 5.78a8.44 8.44 0 0 1 3.836-1.88 4.3 4.3 0 0 1 2.635.355l.192.092.184-.108a6.2 6.2 0 0 1 3.363-.86 6.24 6.24 0 0 1 3.301 1.084h.001l.524.362.114.006c1.34.066 2.63.549 3.704 1.387a6.9 6.9 0 0 1 2.308 3.318l.028.088.209.216a4.76 4.76 0 0 1 1.329 3.288 5.38 5.38 0 0 1-1.341 3.596m-12.74-9.072a.7.7 0 0 1-.166-.217l-.185-.396a3 3 0 0 0-1.334-1.433 2.9 2.9 0 0 0-1.919-.284h-.003a7.1 7.1 0 0 0-3.346 1.712 7.43 7.43 0 0 0-2.057 3.21.7.7 0 0 1-.338.41l-.285.147a4.04 4.04 0 0 0-1.621 1.517 4.252 4.252 0 0 0 .068 4.468l.301.477.002.003a3 3 0 0 0 1.707 1.263 2.9 2.9 0 0 0 2.098-.215L8 18.313a.65.65 0 0 1 .513-.04c.17.057.314.183.398.355s.1.373.042.558a.7.7 0 0 1-.344.418l-.377.197.22.364c.272.448.642.826 1.082 1.101l.005.003.005.004c.75.437 1.638.554 2.471.323l.004-.001 6.189-1.85a.65.65 0 0 1 .51.057c.157.09.278.241.33.426a.77.77 0 0 1-.062.555.7.7 0 0 1-.405.344l-2.242.672.557.476c.358.306.688.564.991.801.957.749 1.658 1.298 2.19 2.528l.003.009.004.008c.085.174.218.321.384.423.164.1.353.15.545.145a1.02 1.02 0 0 0 .729-.315 1.06 1.06 0 0 0 .298-.742v-1.698a.76.76 0 0 1 .151-.45.7.7 0 0 1 .373-.253l3.928-1.013c.398-.092.749-.325.993-.655s.367-.734.35-1.145a1.8 1.8 0 0 0-.5-1.236l-.004-.005-.841-.85-.517.267a.654.654 0 0 1-.664-.026.735.735 0 0 1-.163-1.078.7.7 0 0 1 .209-.166l.442-.229.008-.004a3.83 3.83 0 0 0 1.412-1.427 4 4 0 0 0 .518-1.962c0-.419-.08-.834-.235-1.222a3.2 3.2 0 0 0-.67-1.04l-.329-.34H26.5a.8.8 0 0 1-.169-.283l-.07-.22a5.5 5.5 0 0 0-1.784-2.606 5.24 5.24 0 0 0-2.893-1.146l-.139-.01-.115.078a2.62 2.62 0 0 0-1.054 1.5 2.7 2.7 0 0 0 .167 1.836l.003.006a.73.73 0 0 1-.091.792.7.7 0 0 1-.205.164.655.655 0 0 1-.664-.025.7.7 0 0 1-.253-.284 4.2 4.2 0 0 1-.384-2.288 4.15 4.15 0 0 1 .884-2.134l.31-.387-.444-.221a4.844 4.844 0 0 0-3.833-.211l-.486.178.294.425q.203.292.357.615l.189.39v.002a.75.75 0 0 1-.092.805.656.656 0 0 1-.954.078" clip-rule="evenodd"></path></svg>