<svg xmlns:xlink="http://www.w3.org/1999/xlink" xmlns="http://www.w3.org/2000/svg" fill="none" viewBox="0 0 109 20" width="153"  height="28" ><g clip-path="url(#digital-trends_svg__a)" fill="none"><path fill="#638FB1" d="m28.216 8.24-.133-.158a2.85 2.85 0 0 0-1.03-.743 2.8 2.8 0 0 0-1.237-.214c-2.048 0-3.652 1.838-3.652 4.182s1.604 4.181 3.652 4.181c.423.025.846-.048 1.238-.214s.743-.42 1.029-.743l.133-.16v.891h2.188V3.928l-2.188.805zm-1.932 5.118a1.93 1.93 0 0 1-1.112-.321 2.03 2.03 0 0 1-.75-.91 2.1 2.1 0 0 1-.132-1.187c.07-.4.256-.77.53-1.062a1.96 1.96 0 0 1 1.013-.574 1.9 1.9 0 0 1 1.15.108c.365.153.677.416.896.754a2.1 2.1 0 0 1 .337 1.143c.018.27-.02.54-.11.794s-.23.485-.413.678a1.85 1.85 0 0 1-.645.444c-.243.099-.503.144-.764.131zM32.696 3.735c-.263 0-.52.081-.738.232a1.37 1.37 0 0 0-.49.618c-.1.25-.127.527-.075.794.051.267.178.512.363.705.186.192.423.323.68.376.259.053.526.026.769-.078.242-.104.45-.28.596-.507a1.4 1.4 0 0 0 .224-.764 1.42 1.42 0 0 0-.394-.968 1.32 1.32 0 0 0-.935-.408M33.79 7.351h-2.188v7.916h2.188zM46.657 7.351H44.47v7.916h2.188zM50.125 12.455V9.519h1.292l.817-2.168h-2.109V5.127l-2.187.895v6.433c0 1.986 1.006 2.911 3.167 2.911q.625-.004 1.244-.085l-1.017-2.054c-.779 0-1.207-.014-1.207-.772"></path><path fill="#638FB1" d="m58.348 8.241-.133-.158a2.86 2.86 0 0 0-1.029-.743 2.8 2.8 0 0 0-1.237-.215c-2.048 0-3.652 1.838-3.652 4.182s1.604 4.182 3.652 4.182c.422.024.845-.05 1.237-.215.392-.166.744-.42 1.03-.743l.132-.16v.891h2.188V7.351h-2.188zm-1.932 5.117c-.393.01-.78-.102-1.112-.32a2.03 2.03 0 0 1-.75-.91 2.1 2.1 0 0 1-.133-1.188c.071-.4.256-.77.531-1.062a1.96 1.96 0 0 1 1.013-.574 1.9 1.9 0 0 1 1.15.108c.364.154.676.416.896.754s.337.736.337 1.144c.018.27-.02.54-.11.793-.09.254-.23.485-.413.678a1.85 1.85 0 0 1-.645.444c-.242.099-.503.144-.764.132zM61.719 15.266h2.188V3.67l-2.188.805zM68.065 5.059l-2.205.809-.011 1.486h-.74V9.52h.74v2.936a3.1 3.1 0 0 0 .596 2.163c.44.485 1.144.71 2.217.71q.446 0 .982-.055v-2.041c-.175.01-.318.015-.446.015a1.67 1.67 0 0 1-.842-.155.66.66 0 0 1-.25-.27.7.7 0 0 1-.069-.368V9.52h1.607V7.351h-1.607zM79.356 7.125a3.8 3.8 0 0 0-1.575.274 3.9 3.9 0 0 0-1.339.9 4.1 4.1 0 0 0-.881 1.38 4.2 4.2 0 0 0-.278 1.627c0 2.464 1.746 4.182 4.244 4.182a3.77 3.77 0 0 0 1.831-.359 3.9 3.9 0 0 0 1.459-1.2l-1.746-1.04c-.41.395-.952.607-1.512.593-1.01 0-1.666-.397-1.942-1.182l-.038-.105h5.582q.08-.442.08-.89a4.1 4.1 0 0 0-.25-1.589 4 4 0 0 0-.831-1.36 3.9 3.9 0 0 0-1.28-.912c-.482-.212-1-.32-1.524-.32m-1.815 3.422.027-.1c.116-.385.348-.723.663-.963s.695-.37 1.086-.37.772.13 1.087.37.547.578.663.964l.026.099zM88.932 7.125a2.54 2.54 0 0 0-1.194.208c-.377.166-.711.42-.975.744l-.138.195v-.888l-2.187.805v7.078h2.187v-4.33c0-1.106.557-1.74 1.527-1.74.197-.013.394.019.578.093s.35.189.486.336.24.324.304.517c.065.193.087.398.067.601v4.523h2.188v-4.878c-.002-2.255-1.429-3.264-2.843-3.264M99.067 8.24l-.133-.159a2.86 2.86 0 0 0-1.03-.743 2.8 2.8 0 0 0-1.237-.214c-2.048 0-3.651 1.837-3.651 4.181s1.604 4.182 3.651 4.182c.423.024.846-.049 1.238-.214.392-.166.743-.42 1.029-.744l.133-.158v.89h2.188V4.147l-2.188.805zm-1.932 5.117c-.394.01-.781-.102-1.113-.321a2.03 2.03 0 0 1-.75-.91 2.1 2.1 0 0 1-.132-1.187c.071-.4.256-.77.53-1.062a1.96 1.96 0 0 1 1.014-.574 1.9 1.9 0 0 1 1.15.108c.364.154.676.416.896.754s.337.736.337 1.144c.018.27-.02.54-.11.794s-.23.485-.412.678a1.85 1.85 0 0 1-.646.444c-.243.1-.503.144-.764.132M76.011 7.192a3 3 0 0 0-.625-.067h-.04a2.5 2.5 0 0 0-1.167.196c-.37.157-.699.4-.964.709l-.135.18v-.836l-.04.01v-.03l-2.188.088v7.824h2.226v-4.329c0-1.081.532-1.712 1.462-1.74a5 5 0 0 1 1.471-2.005M41.043 8.241l-.133-.158a2.86 2.86 0 0 0-1.029-.743 2.8 2.8 0 0 0-1.237-.215c-2.048 0-3.652 1.838-3.652 4.182s1.604 4.182 3.652 4.182c.412.022.825-.048 1.209-.205.384-.158.73-.4 1.016-.708l.132-.15v1.489a2 2 0 0 1-.155.748 1.9 1.9 0 0 1-.422.627c-.18.179-.391.318-.623.41-.233.093-.48.137-.729.13a1.9 1.9 0 0 1-1.154-.296 2 2 0 0 1-.778-.93l-.056-.172-1.976.73.049.172a4.18 4.18 0 0 0 1.55 1.974 3.96 3.96 0 0 0 2.365.688c2.372 0 4.16-1.755 4.16-4.081V7.35h-2.189zm-1.932 5.117c-.393.01-.78-.102-1.112-.321a2.03 2.03 0 0 1-.75-.91 2.1 2.1 0 0 1-.132-1.187c.07-.4.256-.77.53-1.062a1.96 1.96 0 0 1 1.013-.574 1.9 1.9 0 0 1 1.15.108c.365.154.677.416.896.754a2.1 2.1 0 0 1 .337 1.144c.018.27-.019.54-.109.793-.09.254-.23.485-.413.678a1.85 1.85 0 0 1-.645.444c-.243.099-.503.144-.764.132zM45.595 3.735c-.263 0-.52.081-.739.232a1.37 1.37 0 0 0-.49.618 1.4 1.4 0 0 0-.075.794c.051.267.178.512.364.705s.422.323.68.376.525.026.768-.078.45-.28.596-.507a1.4 1.4 0 0 0 .224-.764 1.42 1.42 0 0 0-.394-.968 1.32 1.32 0 0 0-.935-.408M105.895 10.338c-.656-.178-1.175-.32-1.175-.708 0-.33.274-.53.731-.53.168-.006.334.028.487.098s.288.176.397.308l2.013-.74.038-.022a3.4 3.4 0 0 0-1.26-1.212 3.27 3.27 0 0 0-1.675-.407c-1.484 0-2.981.795-2.981 2.57 0 1.726 1.529 2.167 2.645 2.49.666.191 1.192.343 1.192.723 0 .264-.159.579-.918.579a1.3 1.3 0 0 1-.661-.13 1.4 1.4 0 0 1-.521-.439l-2.064.757-.01.006c.58 1.186 1.704 1.812 3.253 1.812 1.532 0 3.168-.675 3.168-2.57.003-1.86-1.536-2.279-2.659-2.585M19.093 0H.133A.135.135 0 0 0 0 .138v19.625c0 .076.06.138.133.138h18.96a.135.135 0 0 0 .133-.138V.138A.135.135 0 0 0 19.093 0"></path><path fill="#FFFFFF" d="M15.83 8.646h-4.957v-5.13a.14.14 0 0 0-.039-.096.13.13 0 0 0-.094-.04H8.486a.13.13 0 0 0-.093.04.14.14 0 0 0-.04.097v5.13H3.4a.13.13 0 0 0-.094.04.14.14 0 0 0-.04.097v2.333a.14.14 0 0 0 .04.097.13.13 0 0 0 .094.04h4.955v5.13a.14.14 0 0 0 .039.097.13.13 0 0 0 .093.04h2.254a.13.13 0 0 0 .094-.04.14.14 0 0 0 .04-.098v-5.129h4.954a.13.13 0 0 0 .094-.04.14.14 0 0 0 .04-.097V8.784a.14.14 0 0 0-.039-.097.13.13 0 0 0-.092-.04"></path><path fill="#FFFFFF" d="M5.343 12.021H3.73a.473.473 0 0 0-.465.481v.997c0 .266.208.482.465.482h1.612a.474.474 0 0 0 .465-.482v-.997a.473.473 0 0 0-.465-.481M7.244 14.561H3.73a.474.474 0 0 0-.465.482v.997c0 .265.208.48.465.48h3.513a.473.473 0 0 0 .465-.48v-.997a.474.474 0 0 0-.465-.482"></path><path fill="#638FB1" d="M106.493 4.744c.004-.23.074-.454.201-.643.127-.19.305-.336.512-.421s.433-.105.651-.057.417.16.573.325.262.373.303.6a1.2 1.2 0 0 1-.068.673 1.16 1.16 0 0 1-.416.521 1.1 1.1 0 0 1-1.435-.153 1.2 1.2 0 0 1-.244-.389 1.2 1.2 0 0 1-.077-.456m2.076 0a1 1 0 0 0-.172-.537.95.95 0 0 0-.429-.349.92.92 0 0 0-1.023.229 1 1 0 0 0-.252.502c-.034.19-.014.385.058.562a1 1 0 0 0 .349.435.92.92 0 0 0 .523.164.935.935 0 0 0 .886-.62 1 1 0 0 0 .062-.386zm-1.35-.669h.433a.38.38 0 0 1 .306.11q.06.061.093.143.03.082.026.17a.4.4 0 0 1-.077.254.37.37 0 0 1-.219.14l.357.496h-.178l-.341-.488h-.248v.488h-.153zm.425.68c.185 0 .283-.083.283-.254a.26.26 0 0 0-.076-.212.24.24 0 0 0-.207-.068h-.274v.534z"></path></g><defs><clipPath id="digital-trends_svg__a"><path fill="#fff" d="M0 0h108.75v20H0z"></path></clipPath></defs></svg>