<svg xmlns:xlink="http://www.w3.org/1999/xlink" xmlns="http://www.w3.org/2000/svg" fill="none" viewBox="0 0 16 16" class="h-4 w-4" width="16"  height="16" ><g stroke="#454F69" stroke-linecap="round" stroke-linejoin="round" stroke-width="1.333px" clip-path="url(#checkmark-order_svg__a)" fill="none"><path d="m8 10 1.333 1.333L12 8.667" stroke="#454F69" fill="none" stroke-width="1.333px"></path><path d="M13.333 5.333H6.667c-.737 0-1.334.597-1.334 1.334v6.666c0 .737.597 1.334 1.334 1.334h6.666c.737 0 1.334-.597 1.334-1.334V6.667c0-.737-.597-1.334-1.334-1.334" stroke="#454F69" fill="none" stroke-width="1.333px"></path><path d="M2.667 10.667c-.734 0-1.334-.6-1.334-1.334V2.667c0-.734.6-1.334 1.334-1.334h6.666c.734 0 1.334.6 1.334 1.334" stroke="#454F69" fill="none" stroke-width="1.333px"></path></g><defs><clipPath id="checkmark-order_svg__a"><path fill="#fff" d="M0 0h16v16H0z"></path></clipPath></defs></svg>