<svg xmlns:xlink="http://www.w3.org/1999/xlink" xmlns="http://www.w3.org/2000/svg" fill="none" viewBox="0 0 107 20" width="150"  height="28" ><g fill="#638FB1" clip-path="url(#yahoo-finance_svg__a)"><path d="M.633 6.4h3.222l1.88 4.79L7.632 6.4h3.139L6.05 17.75H2.894l1.292-3.011zM14.037 6.21c-2.419 0-3.951 2.167-3.951 4.326 0 2.433 1.681 4.36 3.901 4.36 1.665 0 2.286-1.01 2.286-1.01v.787h2.808V6.4h-2.808v.753s-.696-.944-2.236-.944m.596 2.655c1.118 0 1.69.885 1.69 1.68 0 .86-.622 1.696-1.69 1.696-.894 0-1.698-.729-1.698-1.663 0-.944.646-1.713 1.698-1.713M20.055 14.673V2.75h2.94v4.435s.696-.968 2.162-.968c1.789 0 2.832 1.332 2.832 3.235v5.228h-2.915v-4.517c0-.645-.307-1.266-1.002-1.266-.704 0-1.077.63-1.077 1.266v4.509zM33.009 6.21c-2.775 0-4.423 2.11-4.423 4.36 0 2.564 1.996 4.318 4.431 4.318 2.36 0 4.423-1.68 4.423-4.277 0-2.846-2.162-4.402-4.431-4.402m.025 2.68c.977 0 1.656.81 1.656 1.68 0 .744-.63 1.654-1.656 1.654a1.645 1.645 0 0 1-1.649-1.663c0-.869.588-1.671 1.649-1.671M42.337 6.21c-2.775 0-4.423 2.11-4.423 4.36 0 2.564 1.996 4.318 4.431 4.318 2.36 0 4.423-1.68 4.423-4.277.008-2.846-2.153-4.402-4.431-4.402m.025 2.68c.977 0 1.656.81 1.656 1.68 0 .744-.63 1.654-1.656 1.654a1.645 1.645 0 0 1-1.648-1.663c.008-.869.596-1.671 1.648-1.671M49.095 10.95a1.952 1.952 0 1 1 0 3.905 1.952 1.952 0 1 1 0-3.905M51.684 10.23h-3.512l3.114-7.479h3.504zM76.496 14.556a3.118 3.118 0 0 1-1.574-.877c-.687-.679-1.077-1.614-1.184-2.557-.116-.984.058-2.01.555-2.87.016-.033.041-.067.058-.1.853-1.398 2.468-2.051 3.967-1.605.505.15.936.422 1.342.894 0-.257.008-.439 0-.62-.009-.15.05-.19.199-.19.811.007 1.623.007 2.426 0 .166 0 .207.057.207.214 0 2.466-.008 4.93 0 7.396 0 .174-.05.224-.223.224a114 114 0 0 0-2.377 0c-.19 0-.249-.058-.232-.24.016-.157 0-.315 0-.472-.091-.05-.116.025-.15.058-.753.81-1.97.985-3.014.745m3.23-3.996c.008-.894-.687-1.589-1.582-1.597-.903-.008-1.623.67-1.632 1.555-.016.877.696 1.589 1.59 1.605.895.009 1.616-.678 1.624-1.563M101.814 14.556c-2.013-.447-3.156-2.085-3.031-4.252.099-1.63.878-2.863 2.393-3.517 1.516-.653 3.023-.546 4.349.497 1.225.96 1.54 2.325 1.457 3.822-.008.215-.165.165-.281.165h-4.779c-.39 0-.423.05-.257.414.381.844 1.69 1.05 2.385.356.191-.19.332-.19.555-.1.605.249 1.21.472 1.814.704.307.116.307.116.108.389-.555.777-1.309 1.257-2.228 1.489-.563.174-2.038.132-2.485.033m1.077-4.923h1.01c.332 0 .365-.041.224-.347-.215-.48-.621-.687-1.127-.712-.538-.024-1.002.133-1.292.63-.041.074-.066.156-.099.23q-.087.212.149.2zM95.221 14.53a3 3 0 0 1-.372-.099c-.547-.182-1.069-.471-1.466-.893-1.26-1.307-1.5-2.863-.92-4.525.564-1.614 1.822-2.408 3.487-2.59a4.35 4.35 0 0 1 2.054.273c.182.066.265.157.257.364a43 43 0 0 0 0 2.06c.008.257-.058.257-.257.149a2.38 2.38 0 0 0-1.615-.256c-.828.165-1.325.785-1.292 1.596.025.761.588 1.34 1.4 1.456a2.3 2.3 0 0 0 1.549-.314c.207-.124.223-.058.223.14a91 91 0 0 0 0 2.118c0 .282-.223.331-.455.39-.845.206-1.748.297-2.593.132M86.539 7.424c.058-.025.074-.025.083-.033.786-1.001 1.83-1.175 2.973-.827 1.143.347 1.607 1.249 1.756 2.366.025.174.033.356.033.538q-.002 2.37.008 4.74c0 .19-.041.265-.248.256-.787-.008-1.582-.016-2.377 0-.224 0-.257-.074-.257-.273.008-1.298 0-2.597.008-3.896 0-.19-.008-.372-.058-.563-.116-.43-.397-.678-.811-.711-.464-.033-.812.165-.994.587-.108.248-.125.505-.125.778 0 1.257-.008 2.523.009 3.78 0 .232-.05.307-.29.298-.779-.016-1.566-.008-2.344 0-.174 0-.249-.04-.24-.231.008-2.457.008-4.906 0-7.363 0-.19.058-.24.24-.24.803.008 1.598.008 2.402 0 .182 0 .257.05.24.24-.017.174-.008.356-.008.554M68.061 7.49c.861-1.083 1.922-1.29 3.098-.918 1.06.33 1.532 1.183 1.706 2.225.041.232.05.472.05.704.008 1.563 0 3.127.008 4.682 0 .207-.041.273-.265.273a54 54 0 0 0-2.32 0c-.231 0-.306-.05-.297-.29q.01-1.937.008-3.863a2.3 2.3 0 0 0-.058-.587c-.116-.414-.398-.662-.795-.695-.456-.042-.804.149-.986.554-.116.24-.14.505-.14.77 0 1.282-.009 2.556.008 3.838 0 .232-.067.281-.282.281-.779-.008-1.565-.008-2.344 0-.199 0-.257-.05-.257-.248.009-2.448.009-4.89 0-7.338 0-.182.05-.248.232-.24.804.008 1.599.008 2.402 0 .207 0 .257.075.249.265-.034.157-.017.33-.017.587M58.225 11.702c0 .827-.009 1.654.008 2.482 0 .231-.075.28-.29.273a72 72 0 0 0-2.319 0c-.215 0-.265-.067-.265-.274.008-1.646 0-3.292.008-4.939 0-.256-.066-.339-.331-.33-.232.016-.53.107-.68-.05-.14-.149-.04-.447-.04-.678-.009-.439.008-.886-.009-1.324-.008-.182.041-.257.232-.24.199.016.398-.008.596.008.174.008.224-.05.224-.223q-.014-.683.182-1.34c.406-1.34 1.474-2.151 2.965-2.242.514-.033 1.019 0 1.508.157.165.05.248.124.24.314-.017.629-.008 1.258 0 1.895 0 .182-.017.256-.232.173a1.68 1.68 0 0 0-1.027-.057c-.522.14-.861.67-.787 1.19.025.166.133.133.232.133.472 0 .944.008 1.416 0 .207-.008.298.033.29.273-.016.58-.016 1.167 0 1.746.008.215-.041.298-.273.29-.464-.017-.928.008-1.383-.009-.24-.008-.274.083-.274.29.009.819.009 1.646.009 2.482M64 10.552c0 1.216-.01 2.424.007 3.64 0 .206-.05.273-.265.273-.786-.017-1.582-.009-2.368 0-.175 0-.249-.042-.249-.232.008-2.457.008-4.906 0-7.363 0-.182.05-.248.24-.24.804.008 1.599.008 2.402 0 .215 0 .24.083.24.265C64 8.103 64 9.327 64 10.552M64.174 4.338c0 .87-.729 1.58-1.615 1.572-.87-.008-1.59-.72-1.59-1.572-.017-.868.712-1.588 1.599-1.588.894 0 1.606.711 1.606 1.588" fill="#638FB1"></path></g><defs><clipPath id="yahoo-finance_svg__a"><path fill="#fff" d="M0 0h107v20H0z"></path></clipPath></defs></svg>