<svg xmlns:xlink="http://www.w3.org/1999/xlink" xmlns="http://www.w3.org/2000/svg" fill="none" viewBox="0 0 137 20" width="192"  height="28" ><path fill="#638FB1" fill-rule="evenodd" d="M.156 3.388h4.917c2.734 0 4.164 1.411 4.164 3.145 0 1.197-.675 2.01-1.613 2.44v.03c1.199.43 1.875 1.381 1.875 2.593 0 1.734-1.337 3.253-4.226 3.253H.156zm4.764 4.54c.814 0 1.183-.413 1.183-.874s-.368-.89-1.183-.89H3.476V7.93zm.046 4.143c.86 0 1.275-.414 1.275-.95 0-.538-.43-.952-1.26-.952H3.477v1.903h1.49m5.239-1.886V3.388h3.35v6.765c0 1.274.629 1.95 1.704 1.95 1.076 0 1.752-.676 1.752-1.964V3.388h3.365v6.797c0 2.884-1.935 4.956-5.117 4.956-3.18 0-5.055-2.072-5.055-4.956m18.7-6.246v2.946c-.722-.506-1.952-.859-2.95-.859-.906 0-1.368.292-1.368.675s.507.583 1.414.905c1.537.537 3.626 1.258 3.626 3.697 0 2.179-1.644 3.79-4.533 3.79-1.49 0-2.858-.43-3.703-.997v-3.1c.83.675 2.09 1.212 3.303 1.212 1.03 0 1.506-.384 1.506-.813 0-.552-.784-.798-1.721-1.136-1.23-.444-3.18-1.242-3.18-3.467 0-2.01 1.583-3.651 4.41-3.651 1.244 0 2.366.322 3.196.797zm1.582-.551h3.35v11.46h-3.35zm15.258 11.46H42.55l-4.133-6.151H38.4v6.152h-3.18V3.388h3.196l4.133 6.045h.015V3.388h3.18zm1.383-11.46h7.929v2.976h-4.58v1.38h4.118v2.701h-4.117v1.427h4.579v2.977h-7.929zm16.334.551v2.946c-.722-.506-1.952-.859-2.95-.859-.906 0-1.368.292-1.368.675s.507.583 1.414.905c1.537.537 3.626 1.258 3.626 3.697 0 2.179-1.644 3.79-4.533 3.79-1.49 0-2.858-.43-3.703-.997v-3.1c.83.675 2.09 1.212 3.303 1.212 1.03 0 1.506-.384 1.506-.813 0-.552-.784-.798-1.72-1.136-1.23-.444-3.181-1.242-3.181-3.467 0-2.01 1.583-3.651 4.41-3.651 1.244 0 2.366.322 3.196.797zm8.866 0v2.946c-.722-.506-1.952-.859-2.95-.859-.906 0-1.368.292-1.368.675s.507.583 1.414.905c1.537.537 3.626 1.258 3.626 3.697 0 2.179-1.644 3.79-4.533 3.79-1.49 0-2.858-.43-3.703-.997v-3.1c.83.675 2.09 1.212 3.303 1.212 1.03 0 1.506-.384 1.506-.813 0-.552-.784-.798-1.721-1.136-1.23-.444-3.18-1.242-3.18-3.467 0-2.01 1.583-3.651 4.41-3.651 1.244 0 2.366.322 3.196.797zm4.603 10.932h3.35V3.41h-3.35zM92.188 3.41h-3.18v6.045h-.016L84.86 3.41h-3.197v11.46h3.18V8.72h.016l4.133 6.152h3.197zm5.39-.246c-2.827 0-4.41 1.641-4.41 3.651 0 2.225 1.953 3.023 3.181 3.467.937.338 1.721.583 1.721 1.136 0 .43-.476.813-1.506.813-1.213 0-2.474-.537-3.303-1.212v3.1c.845.568 2.213.997 3.703.997 2.889 0 4.533-1.611 4.533-3.79 0-2.44-2.09-3.16-3.626-3.697-.906-.322-1.414-.506-1.414-.905s.46-.675 1.368-.675c.998 0 2.228.353 2.95.859V3.962c-.83-.475-1.952-.797-3.196-.797m4.701 11.706h3.35V3.41h-3.35zm8.082-3.023h.646c1.736 0 2.858-.982 2.858-2.7 0-1.72-1.122-2.716-2.858-2.716h-.646zm6.884-2.7c0 3.452-2.612 5.723-6.361 5.723h-3.873V3.41h3.873c3.749 0 6.361 2.285 6.361 5.738zm.908 5.723h7.929v-2.977h-4.579v-1.427h4.117v-2.7h-4.117v-1.38h4.579V3.41h-7.929zm13.201-6.045c.845 0 1.506-.4 1.506-1.197 0-.798-.661-1.197-1.521-1.197h-.707v2.394zm5.485 6.045h-3.949l-2.182-3.545h-.077v3.545h-3.349V3.41h4.087c2.874 0 4.871 1.273 4.871 3.989 0 1.074-.477 2.639-2.383 3.436l2.981 4.036z" clip-rule="evenodd"></path></svg>