<svg xmlns:xlink="http://www.w3.org/1999/xlink" xmlns="http://www.w3.org/2000/svg" fill="none" viewBox="0 0 24 24" class="h-6 w-6 shrink-0" width="24"  height="24" ><path stroke="#FFFFFF" stroke-linecap="round" stroke-linejoin="round" stroke-width="2px" d="M3 11h3a2 2 0 0 1 2 2v3a2 2 0 0 1-2 2H5a2 2 0 0 1-2-2zm0 0a9 9 0 1 1 18 0m0 0v5a2 2 0 0 1-2 2h-1a2 2 0 0 1-2-2v-3a2 2 0 0 1 2-2z" fill="none"></path><path stroke="#FFFFFF" stroke-linecap="round" stroke-linejoin="round" stroke-width="2px" d="M21 16v2a4 4 0 0 1-4 4h-5" fill="none"></path></svg>